<svg width="36" height="37" viewBox="0 0 36 37" fill="none" xmlns="http://www.w3.org/2000/svg">
<path fill-rule="evenodd" clip-rule="evenodd" d="M18 -1.85549e-06C8.064 -1.85549e-06 0 8.28057 0 18.4834C0 28.6863 8.064 36.9668 18 36.9668C27.936 36.9668 36 28.6863 36 18.4834C36 8.28057 27.936 -1.85549e-06 18 -1.85549e-06ZM29.448 27.4109C26.874 24.1948 20.628 23.1043 18 23.1043C15.372 23.1043 9.126 24.1948 6.552 27.4109C4.716 24.9341 3.6 21.8474 3.6 18.4834C3.6 10.3322 10.062 3.69668 18 3.69668C25.938 3.69668 32.4 10.3322 32.4 18.4834C32.4 21.8474 31.284 24.9341 29.448 27.4109ZM11.7 13.8626C11.7 10.2768 14.508 7.39336 18 7.39336C21.492 7.39336 24.3 10.2768 24.3 13.8626C24.3 17.4483 21.492 20.3318 18 20.3318C14.508 20.3318 11.7 17.4483 11.7 13.8626Z" fill="white"/>
</svg>
