<svg width="20" height="24" viewBox="0 0 20 24" fill="none" xmlns="http://www.w3.org/2000/svg">
<path d="M10.0231 0.765957C14.0505 0.765957 18.0346 4.40891 18.0346 8.67212C18.0346 12.9353 19.1489 18.6383 19.1489 18.6383H0.765957C0.765957 18.6383 2.01155 12.797 2.01155 8.67211C2.01155 4.54726 5.99567 0.765957 10.0231 0.765957Z" fill="#F3E6E6"/>
<path d="M12.5106 20.6809C12.5106 22.0554 11.2496 23.234 9.95745 23.234C8.6653 23.234 7.40426 22.0554 7.40426 20.6809M10.0231 0.765957C14.0505 0.765957 18.0346 4.40891 18.0346 8.67212C18.0346 12.9353 19.1489 18.6383 19.1489 18.6383H0.765957C0.765957 18.6383 2.01155 12.797 2.01155 8.67211C2.01155 4.54726 5.99567 0.765957 10.0231 0.765957Z" stroke="#626262" stroke-width="1.5" stroke-linecap="round" stroke-linejoin="round"/>
</svg>
